G04 #@! TF.FileFunction,Legend,Bot*
%FSLAX46Y46*%
G04 Gerber Fmt 4.6, Leading zero omitted, Abs format (unit mm)*
G04 Created by KiCad (PCBNEW 0.201508300901+6132~28~ubuntu15.04.1-product) date Thu 03 Sep 2015 23:07:28 CEST*
%MOMM*%
G01*
G04 APERTURE LIST*
%ADD10C,0.100000*%
%ADD11C,0.150000*%
G04 APERTURE END LIST*
D10*
D11*
X152640095Y-106174381D02*
X152640095Y-105174381D01*
X152259142Y-105174381D01*
X152163904Y-105222000D01*
X152116285Y-105269619D01*
X152068666Y-105364857D01*
X152068666Y-105507714D01*
X152116285Y-105602952D01*
X152163904Y-105650571D01*
X152259142Y-105698190D01*
X152640095Y-105698190D01*
X151116285Y-106174381D02*
X151687714Y-106174381D01*
X151402000Y-106174381D02*
X151402000Y-105174381D01*
X151497238Y-105317238D01*
X151592476Y-105412476D01*
X151687714Y-105460095D01*
X148985333Y-96724381D02*
X148985333Y-95724381D01*
X148747238Y-95724381D01*
X148604380Y-95772000D01*
X148509142Y-95867238D01*
X148461523Y-95962476D01*
X148413904Y-96152952D01*
X148413904Y-96295810D01*
X148461523Y-96486286D01*
X148509142Y-96581524D01*
X148604380Y-96676762D01*
X148747238Y-96724381D01*
X148985333Y-96724381D01*
X147985333Y-96724381D02*
X147985333Y-95724381D01*
X147651999Y-96438667D01*
X147318666Y-95724381D01*
X147318666Y-96724381D01*
X156983905Y-96604381D02*
X156983905Y-95604381D01*
X156745810Y-95604381D01*
X156602952Y-95652000D01*
X156507714Y-95747238D01*
X156460095Y-95842476D01*
X156412476Y-96032952D01*
X156412476Y-96175810D01*
X156460095Y-96366286D01*
X156507714Y-96461524D01*
X156602952Y-96556762D01*
X156745810Y-96604381D01*
X156983905Y-96604381D01*
X155983905Y-96604381D02*
X155983905Y-95604381D01*
X155602952Y-95604381D01*
X155507714Y-95652000D01*
X155460095Y-95699619D01*
X155412476Y-95794857D01*
X155412476Y-95937714D01*
X155460095Y-96032952D01*
X155507714Y-96080571D01*
X155602952Y-96128190D01*
X155983905Y-96128190D01*
X152713904Y-95792000D02*
X152809142Y-95744381D01*
X152951999Y-95744381D01*
X153094857Y-95792000D01*
X153190095Y-95887238D01*
X153237714Y-95982476D01*
X153285333Y-96172952D01*
X153285333Y-96315810D01*
X153237714Y-96506286D01*
X153190095Y-96601524D01*
X153094857Y-96696762D01*
X152951999Y-96744381D01*
X152856761Y-96744381D01*
X152713904Y-96696762D01*
X152666285Y-96649143D01*
X152666285Y-96315810D01*
X152856761Y-96315810D01*
X152237714Y-96744381D02*
X152237714Y-95744381D01*
X151666285Y-96744381D01*
X151666285Y-95744381D01*
X151190095Y-96744381D02*
X151190095Y-95744381D01*
X150952000Y-95744381D01*
X150809142Y-95792000D01*
X150713904Y-95887238D01*
X150666285Y-95982476D01*
X150618666Y-96172952D01*
X150618666Y-96315810D01*
X150666285Y-96506286D01*
X150713904Y-96601524D01*
X150809142Y-96696762D01*
X150952000Y-96744381D01*
X151190095Y-96744381D01*
X149056285Y-103659143D02*
X149103904Y-103706762D01*
X149246761Y-103754381D01*
X149341999Y-103754381D01*
X149484857Y-103706762D01*
X149580095Y-103611524D01*
X149627714Y-103516286D01*
X149675333Y-103325810D01*
X149675333Y-103182952D01*
X149627714Y-102992476D01*
X149580095Y-102897238D01*
X149484857Y-102802000D01*
X149341999Y-102754381D01*
X149246761Y-102754381D01*
X149103904Y-102802000D01*
X149056285Y-102849619D01*
X148627714Y-103754381D02*
X148627714Y-102754381D01*
X148627714Y-103230571D02*
X148056285Y-103230571D01*
X148056285Y-103754381D02*
X148056285Y-102754381D01*
X147008666Y-103754381D02*
X147342000Y-103278190D01*
X147580095Y-103754381D02*
X147580095Y-102754381D01*
X147199142Y-102754381D01*
X147103904Y-102802000D01*
X147056285Y-102849619D01*
X147008666Y-102944857D01*
X147008666Y-103087714D01*
X147056285Y-103182952D01*
X147103904Y-103230571D01*
X147199142Y-103278190D01*
X147580095Y-103278190D01*
X146056285Y-102802000D02*
X146151523Y-102754381D01*
X146294380Y-102754381D01*
X146437238Y-102802000D01*
X146532476Y-102897238D01*
X146580095Y-102992476D01*
X146627714Y-103182952D01*
X146627714Y-103325810D01*
X146580095Y-103516286D01*
X146532476Y-103611524D01*
X146437238Y-103706762D01*
X146294380Y-103754381D01*
X146199142Y-103754381D01*
X146056285Y-103706762D01*
X146008666Y-103659143D01*
X146008666Y-103325810D01*
X146199142Y-103325810D01*
X157685333Y-102754381D02*
X157352000Y-103754381D01*
X157018666Y-102754381D01*
X156351999Y-103230571D02*
X156209142Y-103278190D01*
X156161523Y-103325810D01*
X156113904Y-103421048D01*
X156113904Y-103563905D01*
X156161523Y-103659143D01*
X156209142Y-103706762D01*
X156304380Y-103754381D01*
X156685333Y-103754381D01*
X156685333Y-102754381D01*
X156351999Y-102754381D01*
X156256761Y-102802000D01*
X156209142Y-102849619D01*
X156161523Y-102944857D01*
X156161523Y-103040095D01*
X156209142Y-103135333D01*
X156256761Y-103182952D01*
X156351999Y-103230571D01*
X156685333Y-103230571D01*
X155685333Y-102754381D02*
X155685333Y-103563905D01*
X155637714Y-103659143D01*
X155590095Y-103706762D01*
X155494857Y-103754381D01*
X155304380Y-103754381D01*
X155209142Y-103706762D01*
X155161523Y-103659143D01*
X155113904Y-103563905D01*
X155113904Y-102754381D01*
X154685333Y-103706762D02*
X154542476Y-103754381D01*
X154304380Y-103754381D01*
X154209142Y-103706762D01*
X154161523Y-103659143D01*
X154113904Y-103563905D01*
X154113904Y-103468667D01*
X154161523Y-103373429D01*
X154209142Y-103325810D01*
X154304380Y-103278190D01*
X154494857Y-103230571D01*
X154590095Y-103182952D01*
X154637714Y-103135333D01*
X154685333Y-103040095D01*
X154685333Y-102944857D01*
X154637714Y-102849619D01*
X154590095Y-102802000D01*
X154494857Y-102754381D01*
X154256761Y-102754381D01*
X154113904Y-102802000D01*
M02*
