  0
SECTION
  2
BLOCKS
  0
ENDSEC
  0
SECTION
  2
ENTITIES
  0
LINE
  8
0
 10
28.2
 20
62.32
 11
0
 21
62.32
  0
LINE
  8
0
 10
0
 20
62.32
 11
0
 21
29.32
  0
LINE
  8
0
 10
0
 20
29.32
 11
-15
 21
29.32
  0
LINE
  8
0
 10
-15
 20
29.32
 11
-15
 21
23
  0
LINE
  8
0
 10
-15
 20
23
 11
0
 21
23
  0
LINE
  8
0
 10
0
 20
23
 11
0
 21
0
  0
LINE
  8
0
 10
0
 20
0
 11
28.2
 21
0
  0
LINE
  8
0
 10
28.2
 20
0
 11
28.2
 21
62.32
  0
LINE
  8
0
 10
-12.6628
 20
25.162
 11
-12.7253
 21
25.1679
  0
LINE
  8
0
 10
-12.7253
 20
25.1679
 11
-12.7874
 21
25.1777
  0
LINE
  8
0
 10
-12.7874
 20
25.1777
 11
-12.8487
 21
25.1914
  0
LINE
  8
0
 10
-12.8487
 20
25.1914
 11
-12.909
 21
25.2089
  0
LINE
  8
0
 10
-12.909
 20
25.2089
 11
-12.9681
 21
25.2302
  0
LINE
  8
0
 10
-12.9681
 20
25.2302
 11
-13.0258
 21
25.2552
  0
LINE
  8
0
 10
-13.0258
 20
25.2552
 11
-13.0817
 21
25.2837
  0
LINE
  8
0
 10
-13.0817
 20
25.2837
 11
-13.1358
 21
25.3157
  0
LINE
  8
0
 10
-13.1358
 20
25.3157
 11
-13.1878
 21
25.351
  0
LINE
  8
0
 10
-13.1878
 20
25.351
 11
-13.2374
 21
25.3895
  0
LINE
  8
0
 10
-13.2374
 20
25.3895
 11
-13.2845
 21
25.431
  0
LINE
  8
0
 10
-13.2845
 20
25.431
 11
-13.329
 21
25.4754
  0
LINE
  8
0
 10
-13.329
 20
25.4754
 11
-13.3705
 21
25.5226
  0
LINE
  8
0
 10
-13.3705
 20
25.5226
 11
-13.409
 21
25.5722
  0
LINE
  8
0
 10
-13.409
 20
25.5722
 11
-13.4443
 21
25.6242
  0
LINE
  8
0
 10
-13.4443
 20
25.6242
 11
-13.4763
 21
25.6782
  0
LINE
  8
0
 10
-13.4763
 20
25.6782
 11
-13.5048
 21
25.7342
  0
LINE
  8
0
 10
-13.5048
 20
25.7342
 11
-13.5298
 21
25.7919
  0
LINE
  8
0
 10
-13.5298
 20
25.7919
 11
-13.5511
 21
25.851
  0
LINE
  8
0
 10
-13.5511
 20
25.851
 11
-13.5686
 21
25.9113
  0
LINE
  8
0
 10
-13.5686
 20
25.9113
 11
-13.5823
 21
25.9726
  0
LINE
  8
0
 10
-13.5823
 20
25.9726
 11
-13.5921
 21
26.0347
  0
LINE
  8
0
 10
-13.5921
 20
26.0347
 11
-13.598
 21
26.0972
  0
LINE
  8
0
 10
-13.598
 20
26.0972
 11
-13.6
 21
26.16
  0
LINE
  8
0
 10
-13.6
 20
26.16
 11
-13.598
 21
26.2228
  0
LINE
  8
0
 10
-13.598
 20
26.2228
 11
-13.5921
 21
26.2853
  0
LINE
  8
0
 10
-13.5921
 20
26.2853
 11
-13.5823
 21
26.3474
  0
LINE
  8
0
 10
-13.5823
 20
26.3474
 11
-13.5686
 21
26.4087
  0
LINE
  8
0
 10
-13.5686
 20
26.4087
 11
-13.5511
 21
26.469
  0
LINE
  8
0
 10
-13.5511
 20
26.469
 11
-13.5298
 21
26.5281
  0
LINE
  8
0
 10
-13.5298
 20
26.5281
 11
-13.5048
 21
26.5858
  0
LINE
  8
0
 10
-13.5048
 20
26.5858
 11
-13.4763
 21
26.6418
  0
LINE
  8
0
 10
-13.4763
 20
26.6418
 11
-13.4443
 21
26.6958
  0
LINE
  8
0
 10
-13.4443
 20
26.6958
 11
-13.409
 21
26.7478
  0
LINE
  8
0
 10
-13.409
 20
26.7478
 11
-13.3705
 21
26.7974
  0
LINE
  8
0
 10
-13.3705
 20
26.7974
 11
-13.329
 21
26.8445
  0
LINE
  8
0
 10
-13.329
 20
26.8445
 11
-13.2845
 21
26.889
  0
LINE
  8
0
 10
-13.2845
 20
26.889
 11
-13.2374
 21
26.9305
  0
LINE
  8
0
 10
-13.2374
 20
26.9305
 11
-13.1878
 21
26.969
  0
LINE
  8
0
 10
-13.1878
 20
26.969
 11
-13.1358
 21
27.0043
  0
LINE
  8
0
 10
-13.1358
 20
27.0043
 11
-13.0817
 21
27.0363
  0
LINE
  8
0
 10
-13.0817
 20
27.0363
 11
-13.0258
 21
27.0648
  0
LINE
  8
0
 10
-13.0258
 20
27.0648
 11
-12.9681
 21
27.0898
  0
LINE
  8
0
 10
-12.9681
 20
27.0898
 11
-12.909
 21
27.1111
  0
LINE
  8
0
 10
-12.909
 20
27.1111
 11
-12.8487
 21
27.1286
  0
LINE
  8
0
 10
-12.8487
 20
27.1286
 11
-12.7874
 21
27.1423
  0
LINE
  8
0
 10
-12.7874
 20
27.1423
 11
-12.7253
 21
27.1521
  0
LINE
  8
0
 10
-12.7253
 20
27.1521
 11
-12.6628
 21
27.158
  0
LINE
  8
0
 10
-12.6628
 20
27.158
 11
-12.6
 21
27.16
  0
LINE
  8
0
 10
-12.6
 20
27.16
 11
-12.5372
 21
27.158
  0
LINE
  8
0
 10
-12.5372
 20
27.158
 11
-12.4747
 21
27.1521
  0
LINE
  8
0
 10
-12.4747
 20
27.1521
 11
-12.4126
 21
27.1423
  0
LINE
  8
0
 10
-12.4126
 20
27.1423
 11
-12.3513
 21
27.1286
  0
LINE
  8
0
 10
-12.3513
 20
27.1286
 11
-12.291
 21
27.1111
  0
LINE
  8
0
 10
-12.291
 20
27.1111
 11
-12.2319
 21
27.0898
  0
LINE
  8
0
 10
-12.2319
 20
27.0898
 11
-12.1742
 21
27.0648
  0
LINE
  8
0
 10
-12.1742
 20
27.0648
 11
-12.1182
 21
27.0363
  0
LINE
  8
0
 10
-12.1182
 20
27.0363
 11
-12.0642
 21
27.0043
  0
LINE
  8
0
 10
-12.0642
 20
27.0043
 11
-12.0122
 21
26.969
  0
LINE
  8
0
 10
-12.0122
 20
26.969
 11
-11.9626
 21
26.9305
  0
LINE
  8
0
 10
-11.9626
 20
26.9305
 11
-11.9155
 21
26.889
  0
LINE
  8
0
 10
-11.9155
 20
26.889
 11
-11.871
 21
26.8445
  0
LINE
  8
0
 10
-11.871
 20
26.8445
 11
-11.8295
 21
26.7974
  0
LINE
  8
0
 10
-11.8295
 20
26.7974
 11
-11.791
 21
26.7478
  0
LINE
  8
0
 10
-11.791
 20
26.7478
 11
-11.7557
 21
26.6958
  0
LINE
  8
0
 10
-11.7557
 20
26.6958
 11
-11.7237
 21
26.6418
  0
LINE
  8
0
 10
-11.7237
 20
26.6418
 11
-11.6952
 21
26.5858
  0
LINE
  8
0
 10
-11.6952
 20
26.5858
 11
-11.6702
 21
26.5281
  0
LINE
  8
0
 10
-11.6702
 20
26.5281
 11
-11.6489
 21
26.469
  0
LINE
  8
0
 10
-11.6489
 20
26.469
 11
-11.6314
 21
26.4087
  0
LINE
  8
0
 10
-11.6314
 20
26.4087
 11
-11.6177
 21
26.3474
  0
LINE
  8
0
 10
-11.6177
 20
26.3474
 11
-11.6079
 21
26.2853
  0
LINE
  8
0
 10
-11.6079
 20
26.2853
 11
-11.602
 21
26.2228
  0
LINE
  8
0
 10
-11.602
 20
26.2228
 11
-11.6
 21
26.16
  0
LINE
  8
0
 10
-11.6
 20
26.16
 11
-11.602
 21
26.0972
  0
LINE
  8
0
 10
-11.602
 20
26.0972
 11
-11.6079
 21
26.0347
  0
LINE
  8
0
 10
-11.6079
 20
26.0347
 11
-11.6177
 21
25.9726
  0
LINE
  8
0
 10
-11.6177
 20
25.9726
 11
-11.6314
 21
25.9113
  0
LINE
  8
0
 10
-11.6314
 20
25.9113
 11
-11.6489
 21
25.851
  0
LINE
  8
0
 10
-11.6489
 20
25.851
 11
-11.6702
 21
25.7919
  0
LINE
  8
0
 10
-11.6702
 20
25.7919
 11
-11.6952
 21
25.7342
  0
LINE
  8
0
 10
-11.6952
 20
25.7342
 11
-11.7237
 21
25.6782
  0
LINE
  8
0
 10
-11.7237
 20
25.6782
 11
-11.7557
 21
25.6242
  0
LINE
  8
0
 10
-11.7557
 20
25.6242
 11
-11.791
 21
25.5722
  0
LINE
  8
0
 10
-11.791
 20
25.5722
 11
-11.8295
 21
25.5226
  0
LINE
  8
0
 10
-11.8295
 20
25.5226
 11
-11.871
 21
25.4754
  0
LINE
  8
0
 10
-11.871
 20
25.4754
 11
-11.9155
 21
25.431
  0
LINE
  8
0
 10
-11.9155
 20
25.431
 11
-11.9626
 21
25.3895
  0
LINE
  8
0
 10
-11.9626
 20
25.3895
 11
-12.0122
 21
25.351
  0
LINE
  8
0
 10
-12.0122
 20
25.351
 11
-12.0642
 21
25.3157
  0
LINE
  8
0
 10
-12.0642
 20
25.3157
 11
-12.1182
 21
25.2837
  0
LINE
  8
0
 10
-12.1182
 20
25.2837
 11
-12.1742
 21
25.2552
  0
LINE
  8
0
 10
-12.1742
 20
25.2552
 11
-12.2319
 21
25.2302
  0
LINE
  8
0
 10
-12.2319
 20
25.2302
 11
-12.291
 21
25.2089
  0
LINE
  8
0
 10
-12.291
 20
25.2089
 11
-12.3513
 21
25.1914
  0
LINE
  8
0
 10
-12.3513
 20
25.1914
 11
-12.4126
 21
25.1777
  0
LINE
  8
0
 10
-12.4126
 20
25.1777
 11
-12.4747
 21
25.1679
  0
LINE
  8
0
 10
-12.4747
 20
25.1679
 11
-12.5372
 21
25.162
  0
LINE
  8
0
 10
-12.5372
 20
25.162
 11
-12.6
 21
25.16
  0
LINE
  8
0
 10
-12.6
 20
25.16
 11
-12.6628
 21
25.162
  0
LINE
  8
0
 10
-4.76279
 20
25.162
 11
-4.82533
 21
25.1679
  0
LINE
  8
0
 10
-4.82533
 20
25.1679
 11
-4.88737
 21
25.1777
  0
LINE
  8
0
 10
-4.88737
 20
25.1777
 11
-4.94868
 21
25.1914
  0
LINE
  8
0
 10
-4.94868
 20
25.1914
 11
-5.009
 21
25.2089
  0
LINE
  8
0
 10
-5.009
 20
25.2089
 11
-5.06812
 21
25.2302
  0
LINE
  8
0
 10
-5.06812
 20
25.2302
 11
-5.12578
 21
25.2552
  0
LINE
  8
0
 10
-5.12578
 20
25.2552
 11
-5.18175
 21
25.2837
  0
LINE
  8
0
 10
-5.18175
 20
25.2837
 11
-5.23582
 21
25.3157
  0
LINE
  8
0
 10
-5.23582
 20
25.3157
 11
-5.28778
 21
25.351
  0
LINE
  8
0
 10
-5.28778
 20
25.351
 11
-5.33742
 21
25.3895
  0
LINE
  8
0
 10
-5.33742
 20
25.3895
 11
-5.38454
 21
25.431
  0
LINE
  8
0
 10
-5.38454
 20
25.431
 11
-5.42896
 21
25.4754
  0
LINE
  8
0
 10
-5.42896
 20
25.4754
 11
-5.4705
 21
25.5226
  0
LINE
  8
0
 10
-5.4705
 20
25.5226
 11
-5.509
 21
25.5722
  0
LINE
  8
0
 10
-5.509
 20
25.5722
 11
-5.54433
 21
25.6242
  0
LINE
  8
0
 10
-5.54433
 20
25.6242
 11
-5.57629
 21
25.6782
  0
LINE
  8
0
 10
-5.57629
 20
25.6782
 11
-5.60481
 21
25.7342
  0
LINE
  8
0
 10
-5.60481
 20
25.7342
 11
-5.62978
 21
25.7919
  0
LINE
  8
0
 10
-5.62978
 20
25.7919
 11
-5.65105
 21
25.851
  0
LINE
  8
0
 10
-5.65105
 20
25.851
 11
-5.66858
 21
25.9113
  0
LINE
  8
0
 10
-5.66858
 20
25.9113
 11
-5.68228
 21
25.9726
  0
LINE
  8
0
 10
-5.68228
 20
25.9726
 11
-5.69211
 21
26.0347
  0
LINE
  8
0
 10
-5.69211
 20
26.0347
 11
-5.69801
 21
26.0972
  0
LINE
  8
0
 10
-5.69801
 20
26.0972
 11
-5.7
 21
26.16
  0
LINE
  8
0
 10
-5.7
 20
26.16
 11
-5.69801
 21
26.2228
  0
LINE
  8
0
 10
-5.69801
 20
26.2228
 11
-5.69211
 21
26.2853
  0
LINE
  8
0
 10
-5.69211
 20
26.2853
 11
-5.68228
 21
26.3474
  0
LINE
  8
0
 10
-5.68228
 20
26.3474
 11
-5.66858
 21
26.4087
  0
LINE
  8
0
 10
-5.66858
 20
26.4087
 11
-5.65105
 21
26.469
  0
LINE
  8
0
 10
-5.65105
 20
26.469
 11
-5.62978
 21
26.5281
  0
LINE
  8
0
 10
-5.62978
 20
26.5281
 11
-5.60481
 21
26.5858
  0
LINE
  8
0
 10
-5.60481
 20
26.5858
 11
-5.57629
 21
26.6418
  0
LINE
  8
0
 10
-5.57629
 20
26.6418
 11
-5.54433
 21
26.6958
  0
LINE
  8
0
 10
-5.54433
 20
26.6958
 11
-5.509
 21
26.7478
  0
LINE
  8
0
 10
-5.509
 20
26.7478
 11
-5.4705
 21
26.7974
  0
LINE
  8
0
 10
-5.4705
 20
26.7974
 11
-5.42896
 21
26.8445
  0
LINE
  8
0
 10
-5.42896
 20
26.8445
 11
-5.38454
 21
26.889
  0
LINE
  8
0
 10
-5.38454
 20
26.889
 11
-5.33742
 21
26.9305
  0
LINE
  8
0
 10
-5.33742
 20
26.9305
 11
-5.28778
 21
26.969
  0
LINE
  8
0
 10
-5.28778
 20
26.969
 11
-5.23582
 21
27.0043
  0
LINE
  8
0
 10
-5.23582
 20
27.0043
 11
-5.18175
 21
27.0363
  0
LINE
  8
0
 10
-5.18175
 20
27.0363
 11
-5.12578
 21
27.0648
  0
LINE
  8
0
 10
-5.12578
 20
27.0648
 11
-5.06812
 21
27.0898
  0
LINE
  8
0
 10
-5.06812
 20
27.0898
 11
-5.009
 21
27.1111
  0
LINE
  8
0
 10
-5.009
 20
27.1111
 11
-4.94868
 21
27.1286
  0
LINE
  8
0
 10
-4.94868
 20
27.1286
 11
-4.88737
 21
27.1423
  0
LINE
  8
0
 10
-4.88737
 20
27.1423
 11
-4.82533
 21
27.1521
  0
LINE
  8
0
 10
-4.82533
 20
27.1521
 11
-4.76279
 21
27.158
  0
LINE
  8
0
 10
-4.76279
 20
27.158
 11
-4.7
 21
27.16
  0
LINE
  8
0
 10
-4.7
 20
27.16
 11
-4.63721
 21
27.158
  0
LINE
  8
0
 10
-4.63721
 20
27.158
 11
-4.57466
 21
27.1521
  0
LINE
  8
0
 10
-4.57466
 20
27.1521
 11
-4.5126
 21
27.1423
  0
LINE
  8
0
 10
-4.5126
 20
27.1423
 11
-4.45131
 21
27.1286
  0
LINE
  8
0
 10
-4.45131
 20
27.1286
 11
-4.39098
 21
27.1111
  0
LINE
  8
0
 10
-4.39098
 20
27.1111
 11
-4.33186
 21
27.0898
  0
LINE
  8
0
 10
-4.33186
 20
27.0898
 11
-4.27422
 21
27.0648
  0
LINE
  8
0
 10
-4.27422
 20
27.0648
 11
-4.21823
 21
27.0363
  0
LINE
  8
0
 10
-4.21823
 20
27.0363
 11
-4.16417
 21
27.0043
  0
LINE
  8
0
 10
-4.16417
 20
27.0043
 11
-4.11221
 21
26.969
  0
LINE
  8
0
 10
-4.11221
 20
26.969
 11
-4.06256
 21
26.9305
  0
LINE
  8
0
 10
-4.06256
 20
26.9305
 11
-4.01544
 21
26.889
  0
LINE
  8
0
 10
-4.01544
 20
26.889
 11
-3.97102
 21
26.8445
  0
LINE
  8
0
 10
-3.97102
 20
26.8445
 11
-3.92947
 21
26.7974
  0
LINE
  8
0
 10
-3.92947
 20
26.7974
 11
-3.89098
 21
26.7478
  0
LINE
  8
0
 10
-3.89098
 20
26.7478
 11
-3.85567
 21
26.6958
  0
LINE
  8
0
 10
-3.85567
 20
26.6958
 11
-3.82368
 21
26.6418
  0
LINE
  8
0
 10
-3.82368
 20
26.6418
 11
-3.79517
 21
26.5858
  0
LINE
  8
0
 10
-3.79517
 20
26.5858
 11
-3.77022
 21
26.5281
  0
LINE
  8
0
 10
-3.77022
 20
26.5281
 11
-3.74893
 21
26.469
  0
LINE
  8
0
 10
-3.74893
 20
26.469
 11
-3.73141
 21
26.4087
  0
LINE
  8
0
 10
-3.73141
 20
26.4087
 11
-3.71771
 21
26.3474
  0
LINE
  8
0
 10
-3.71771
 20
26.3474
 11
-3.70787
 21
26.2853
  0
LINE
  8
0
 10
-3.70787
 20
26.2853
 11
-3.70197
 21
26.2228
  0
LINE
  8
0
 10
-3.70197
 20
26.2228
 11
-3.7
 21
26.16
  0
LINE
  8
0
 10
-3.7
 20
26.16
 11
-3.70197
 21
26.0972
  0
LINE
  8
0
 10
-3.70197
 20
26.0972
 11
-3.70787
 21
26.0347
  0
LINE
  8
0
 10
-3.70787
 20
26.0347
 11
-3.71771
 21
25.9726
  0
LINE
  8
0
 10
-3.71771
 20
25.9726
 11
-3.73141
 21
25.9113
  0
LINE
  8
0
 10
-3.73141
 20
25.9113
 11
-3.74893
 21
25.851
  0
LINE
  8
0
 10
-3.74893
 20
25.851
 11
-3.77022
 21
25.7919
  0
LINE
  8
0
 10
-3.77022
 20
25.7919
 11
-3.79517
 21
25.7342
  0
LINE
  8
0
 10
-3.79517
 20
25.7342
 11
-3.82368
 21
25.6782
  0
LINE
  8
0
 10
-3.82368
 20
25.6782
 11
-3.85567
 21
25.6242
  0
LINE
  8
0
 10
-3.85567
 20
25.6242
 11
-3.89098
 21
25.5722
  0
LINE
  8
0
 10
-3.89098
 20
25.5722
 11
-3.92947
 21
25.5226
  0
LINE
  8
0
 10
-3.92947
 20
25.5226
 11
-3.97102
 21
25.4754
  0
LINE
  8
0
 10
-3.97102
 20
25.4754
 11
-4.01544
 21
25.431
  0
LINE
  8
0
 10
-4.01544
 20
25.431
 11
-4.06256
 21
25.3895
  0
LINE
  8
0
 10
-4.06256
 20
25.3895
 11
-4.11221
 21
25.351
  0
LINE
  8
0
 10
-4.11221
 20
25.351
 11
-4.16417
 21
25.3157
  0
LINE
  8
0
 10
-4.16417
 20
25.3157
 11
-4.21823
 21
25.2837
  0
LINE
  8
0
 10
-4.21823
 20
25.2837
 11
-4.27422
 21
25.2552
  0
LINE
  8
0
 10
-4.27422
 20
25.2552
 11
-4.33186
 21
25.2302
  0
LINE
  8
0
 10
-4.33186
 20
25.2302
 11
-4.39098
 21
25.2089
  0
LINE
  8
0
 10
-4.39098
 20
25.2089
 11
-4.45131
 21
25.1914
  0
LINE
  8
0
 10
-4.45131
 20
25.1914
 11
-4.5126
 21
25.1777
  0
LINE
  8
0
 10
-4.5126
 20
25.1777
 11
-4.57466
 21
25.1679
  0
LINE
  8
0
 10
-4.57466
 20
25.1679
 11
-4.63721
 21
25.162
  0
LINE
  8
0
 10
-4.63721
 20
25.162
 11
-4.7
 21
25.16
  0
LINE
  8
0
 10
-4.7
 20
25.16
 11
-4.76279
 21
25.162
  0
ENDSEC
  0
SECTION
  2
OBJECTS
  0
DICTIONARY
  0
ENDSEC
  0
EOF
